<?xml version="1.0"?>
<svg xmlns="http://www.w3.org/2000/svg" xmlns:xlink="http://www.w3.org/1999/xlink" version="1.1" width="320px" height="320px" viewBox="0 0 320 320"><rect x="0" y="0" width="320" height="320" fill="#ffffff" fill-opacity="1"/><path fill="#000000" fill-opacity="1" d="M11,11L74,11L74,20L11,20ZM92,11L101,11L101,20L92,20ZM128,11L182,11L182,20L128,20ZM200,11L227,11L227,20L200,20ZM245,11L308,11L308,20L245,20ZM11,20L20,20L20,29L11,29ZM65,20L74,20L74,29L65,29ZM101,20L110,20L110,29L101,29ZM128,20L146,20L146,29L128,29ZM164,20L182,20L182,29L164,29ZM200,20L218,20L218,29L200,29ZM245,20L254,20L254,29L245,29ZM299,20L308,20L308,29L299,29ZM11,29L20,29L20,38L11,38ZM29,29L56,29L56,38L29,38ZM65,29L74,29L74,38L65,38ZM92,29L101,29L101,38L92,38ZM128,29L137,29L137,38L128,38ZM146,29L155,29L155,38L146,38ZM164,29L173,29L173,38L164,38ZM209,29L236,29L236,38L209,38ZM245,29L254,29L254,38L245,38ZM263,29L290,29L290,38L263,38ZM299,29L308,29L308,38L299,38ZM11,38L20,38L20,47L11,47ZM29,38L56,38L56,47L29,47ZM65,38L74,38L74,47L65,47ZM110,38L128,38L128,47L110,47ZM146,38L155,38L155,47L146,47ZM173,38L182,38L182,47L173,47ZM200,38L218,38L218,47L200,47ZM227,38L236,38L236,47L227,47ZM245,38L254,38L254,47L245,47ZM263,38L290,38L290,47L263,47ZM299,38L308,38L308,47L299,47ZM11,47L20,47L20,56L11,56ZM29,47L56,47L56,56L29,56ZM65,47L74,47L74,56L65,56ZM83,47L101,47L101,56L83,56ZM110,47L182,47L182,56L110,56ZM191,47L200,47L200,56L191,56ZM209,47L236,47L236,56L209,56ZM245,47L254,47L254,56L245,56ZM263,47L290,47L290,56L263,56ZM299,47L308,47L308,56L299,56ZM11,56L20,56L20,65L11,65ZM65,56L74,56L74,65L65,65ZM92,56L101,56L101,65L92,65ZM110,56L137,56L137,65L110,65ZM155,56L191,56L191,65L155,65ZM200,56L209,56L209,65L200,65ZM218,56L227,56L227,65L218,65ZM245,56L254,56L254,65L245,65ZM299,56L308,56L308,65L299,65ZM11,65L74,65L74,74L11,74ZM83,65L92,65L92,74L83,74ZM101,65L110,65L110,74L101,74ZM119,65L128,65L128,74L119,74ZM137,65L146,65L146,74L137,74ZM155,65L164,65L164,74L155,74ZM173,65L182,65L182,74L173,74ZM191,65L200,65L200,74L191,74ZM209,65L218,65L218,74L209,74ZM227,65L236,65L236,74L227,74ZM245,65L308,65L308,74L245,74ZM83,74L137,74L137,83L83,83ZM182,74L191,74L191,83L182,83ZM209,74L218,74L218,83L209,83ZM227,74L236,74L236,83L227,83ZM29,83L47,83L47,92L29,92ZM65,83L92,83L92,92L65,92ZM110,83L137,83L137,92L110,92ZM146,83L155,83L155,92L146,92ZM182,83L191,83L191,92L182,92ZM200,83L227,83L227,92L200,92ZM236,83L254,83L254,92L236,92ZM263,83L272,83L272,92L263,92ZM11,92L56,92L56,101L11,101ZM74,92L92,92L92,101L74,101ZM164,92L173,92L173,101L164,101ZM191,92L218,92L218,101L191,101ZM236,92L245,92L245,101L236,101ZM272,92L299,92L299,101L272,101ZM29,101L56,101L56,110L29,110ZM65,101L74,101L74,110L65,110ZM92,101L128,101L128,110L92,110ZM164,101L173,101L173,110L164,110ZM182,101L191,101L191,110L182,110ZM218,101L290,101L290,110L218,110ZM299,101L308,101L308,110L299,110ZM11,110L29,110L29,119L11,119ZM38,110L47,110L47,119L38,119ZM74,110L83,110L83,119L74,119ZM92,110L110,110L110,119L92,119ZM128,110L137,110L137,119L128,119ZM146,110L164,110L164,119L146,119ZM218,110L290,110L290,119L218,119ZM29,119L38,119L38,128L29,128ZM56,119L83,119L83,128L56,128ZM92,119L128,119L128,128L92,128ZM146,119L191,119L191,128L146,128ZM200,119L209,119L209,128L200,128ZM227,119L236,119L236,128L227,128ZM272,119L281,119L281,128L272,128ZM290,119L299,119L299,128L290,128ZM11,128L29,128L29,137L11,137ZM38,128L65,128L65,137L38,137ZM74,128L92,128L92,137L74,137ZM101,128L110,128L110,137L101,137ZM119,128L146,128L146,137L119,137ZM155,128L164,128L164,137L155,137ZM173,128L182,128L182,137L173,137ZM191,128L200,128L200,137L191,137ZM209,128L245,128L245,137L209,137ZM272,128L281,128L281,137L272,137ZM299,128L308,128L308,137L299,137ZM11,137L47,137L47,146L11,146ZM56,137L92,137L92,146L56,146ZM119,137L128,137L128,146L119,146ZM137,137L146,137L146,146L137,146ZM164,137L209,137L209,146L164,146ZM254,137L281,137L281,146L254,146ZM56,146L65,146L65,155L56,155ZM74,146L83,146L83,155L74,155ZM92,146L101,146L101,155L92,155ZM110,146L119,146L119,155L110,155ZM146,146L155,146L155,155L146,155ZM173,146L182,146L182,155L173,155ZM191,146L200,146L200,155L191,155ZM218,146L227,146L227,155L218,155ZM245,146L263,146L263,155L245,155ZM281,146L290,146L290,155L281,155ZM299,146L308,146L308,155L299,155ZM20,155L29,155L29,164L20,164ZM47,155L83,155L83,164L47,164ZM92,155L101,155L101,164L92,164ZM155,155L164,155L164,164L155,164ZM182,155L200,155L200,164L182,164ZM209,155L227,155L227,164L209,164ZM236,155L254,155L254,164L236,164ZM20,164L29,164L29,173L20,173ZM56,164L65,164L65,173L56,173ZM92,164L101,164L101,173L92,173ZM110,164L119,164L119,173L110,173ZM137,164L146,164L146,173L137,173ZM164,164L200,164L200,173L164,173ZM227,164L236,164L236,173L227,173ZM254,164L272,164L272,173L254,173ZM290,164L299,164L299,173L290,173ZM20,173L29,173L29,182L20,182ZM38,173L56,173L56,182L38,182ZM65,173L83,173L83,182L65,182ZM92,173L101,173L101,182L92,182ZM110,173L137,173L137,182L110,182ZM146,173L182,173L182,182L146,182ZM191,173L200,173L200,182L191,182ZM236,173L254,173L254,182L236,182ZM263,173L308,173L308,182L263,182ZM11,182L29,182L29,191L11,191ZM38,182L65,182L65,191L38,191ZM110,182L119,182L119,191L110,191ZM164,182L173,182L173,191L164,191ZM182,182L200,182L200,191L182,191ZM227,182L236,182L236,191L227,191ZM254,182L263,182L263,191L254,191ZM11,191L20,191L20,200L11,200ZM47,191L56,191L56,200L47,200ZM65,191L74,191L74,200L65,200ZM83,191L101,191L101,200L83,200ZM119,191L128,191L128,200L119,200ZM137,191L146,191L146,200L137,200ZM155,191L182,191L182,200L155,200ZM209,191L218,191L218,200L209,200ZM227,191L236,191L236,200L227,200ZM245,191L254,191L254,200L245,200ZM263,191L290,191L290,200L263,200ZM299,191L308,191L308,200L299,200ZM11,200L20,200L20,209L11,209ZM29,200L38,200L38,209L29,209ZM47,200L65,200L65,209L47,209ZM92,200L128,200L128,209L92,209ZM173,200L182,200L182,209L173,209ZM191,200L209,200L209,209L191,209ZM227,200L236,200L236,209L227,209ZM254,200L263,200L263,209L254,209ZM272,200L308,200L308,209L272,209ZM29,209L74,209L74,218L29,218ZM92,209L101,209L101,218L92,218ZM110,209L119,209L119,218L110,218ZM146,209L164,209L164,218L146,218ZM173,209L182,209L182,218L173,218ZM218,209L254,209L254,218L218,218ZM263,209L272,209L272,218L263,218ZM299,209L308,209L308,218L299,218ZM20,218L47,218L47,227L20,227ZM74,218L83,218L83,227L74,227ZM119,218L137,218L137,227L119,227ZM146,218L164,218L164,227L146,227ZM173,218L182,218L182,227L173,227ZM191,218L200,218L200,227L191,227ZM209,218L218,218L218,227L209,227ZM245,218L254,218L254,227L245,227ZM263,218L272,218L272,227L263,227ZM290,218L308,218L308,227L290,227ZM11,227L20,227L20,236L11,236ZM38,227L47,227L47,236L38,236ZM65,227L101,227L101,236L65,236ZM119,227L137,227L137,236L119,236ZM146,227L173,227L173,236L146,236ZM200,227L209,227L209,236L200,236ZM227,227L272,227L272,236L227,236ZM290,227L299,227L299,236L290,236ZM83,236L92,236L92,245L83,245ZM101,236L119,236L119,245L101,245ZM137,236L155,236L155,245L137,245ZM164,236L191,236L191,245L164,245ZM200,236L209,236L209,245L200,245ZM218,236L236,236L236,245L218,245ZM263,236L272,236L272,245L263,245ZM299,236L308,236L308,245L299,245ZM11,245L74,245L74,254L11,254ZM83,245L119,245L119,254L83,254ZM137,245L155,245L155,254L137,254ZM191,245L209,245L209,254L191,254ZM218,245L236,245L236,254L218,254ZM245,245L254,245L254,254L245,254ZM263,245L272,245L272,254L263,254ZM281,245L299,245L299,254L281,254ZM11,254L20,254L20,263L11,263ZM65,254L74,254L74,263L65,263ZM92,254L137,254L137,263L92,263ZM155,254L164,254L164,263L155,263ZM182,254L191,254L191,263L182,263ZM218,254L236,254L236,263L218,263ZM263,254L281,254L281,263L263,263ZM299,254L308,254L308,263L299,263ZM11,263L20,263L20,272L11,272ZM29,263L56,263L56,272L29,272ZM65,263L74,263L74,272L65,272ZM101,263L137,263L137,272L101,272ZM155,263L191,263L191,272L155,272ZM209,263L218,263L218,272L209,272ZM227,263L290,263L290,272L227,272ZM299,263L308,263L308,272L299,272ZM11,272L20,272L20,281L11,281ZM29,272L56,272L56,281L29,281ZM65,272L74,272L74,281L65,281ZM83,272L128,272L128,281L83,281ZM164,272L182,272L182,281L164,281ZM200,272L218,272L218,281L200,281ZM227,272L245,272L245,281L227,281ZM254,272L263,272L263,281L254,281ZM272,272L290,272L290,281L272,281ZM11,281L20,281L20,290L11,290ZM29,281L56,281L56,290L29,290ZM65,281L74,281L74,290L65,290ZM83,281L92,281L92,290L83,290ZM110,281L137,281L137,290L110,290ZM146,281L155,281L155,290L146,290ZM191,281L200,281L200,290L191,290ZM209,281L263,281L263,290L209,290ZM11,290L20,290L20,299L11,299ZM65,290L74,290L74,299L65,299ZM110,290L119,290L119,299L110,299ZM137,290L155,290L155,299L137,299ZM164,290L173,290L173,299L164,299ZM191,290L209,290L209,299L191,299ZM227,290L254,290L254,299L227,299ZM281,290L299,290L299,299L281,299ZM11,299L74,299L74,308L11,308ZM92,299L128,299L128,308L92,308ZM164,299L173,299L173,308L164,308ZM182,299L191,299L191,308L182,308ZM209,299L272,299L272,308L209,308Z"/></svg>
