<?xml version="1.0"?>
<svg xmlns="http://www.w3.org/2000/svg" xmlns:xlink="http://www.w3.org/1999/xlink" version="1.1" width="320px" height="320px" viewBox="0 0 320 320"><rect x="0" y="0" width="320" height="320" fill="#ffffff" fill-opacity="1"/><path fill="#000000" fill-opacity="1" d="M12,12L68,12L68,20L12,20ZM76,12L100,12L100,20L76,20ZM116,12L140,12L140,20L116,20ZM156,12L164,12L164,20L156,20ZM204,12L212,12L212,20L204,20ZM220,12L244,12L244,20L220,20ZM252,12L308,12L308,20L252,20ZM12,20L20,20L20,28L12,28ZM60,20L68,20L68,28L60,28ZM76,20L116,20L116,28L76,28ZM124,20L164,20L164,28L124,28ZM172,20L204,20L204,28L172,28ZM212,20L220,20L220,28L212,28ZM252,20L260,20L260,28L252,28ZM300,20L308,20L308,28L300,28ZM12,28L20,28L20,36L12,36ZM28,28L52,28L52,36L28,36ZM60,28L68,28L68,36L60,36ZM84,28L116,28L116,36L84,36ZM132,28L140,28L140,36L132,36ZM188,28L196,28L196,36L188,36ZM204,28L220,28L220,36L204,36ZM228,28L244,28L244,36L228,36ZM252,28L260,28L260,36L252,36ZM268,28L292,28L292,36L268,36ZM300,28L308,28L308,36L300,36ZM12,36L20,36L20,44L12,44ZM28,36L52,36L52,44L28,44ZM60,36L68,36L68,44L60,44ZM76,36L84,36L84,44L76,44ZM132,36L148,36L148,44L132,44ZM156,36L196,36L196,44L156,44ZM220,36L244,36L244,44L220,44ZM252,36L260,36L260,44L252,44ZM268,36L292,36L292,44L268,44ZM300,36L308,36L308,44L300,44ZM12,44L20,44L20,52L12,52ZM28,44L52,44L52,52L28,52ZM60,44L68,44L68,52L60,52ZM76,44L100,44L100,52L76,52ZM116,44L124,44L124,52L116,52ZM132,44L164,44L164,52L132,52ZM180,44L196,44L196,52L180,52ZM228,44L244,44L244,52L228,52ZM252,44L260,44L260,52L252,52ZM268,44L292,44L292,52L268,52ZM300,44L308,44L308,52L300,52ZM12,52L20,52L20,60L12,60ZM60,52L68,52L68,60L60,60ZM76,52L84,52L84,60L76,60ZM100,52L116,52L116,60L100,60ZM140,52L148,52L148,60L140,60ZM164,52L196,52L196,60L164,60ZM204,52L212,52L212,60L204,60ZM252,52L260,52L260,60L252,60ZM300,52L308,52L308,60L300,60ZM12,60L68,60L68,68L12,68ZM76,60L84,60L84,68L76,68ZM92,60L100,60L100,68L92,68ZM108,60L116,60L116,68L108,68ZM124,60L132,60L132,68L124,68ZM140,60L148,60L148,68L140,68ZM156,60L164,60L164,68L156,68ZM172,60L180,60L180,68L172,68ZM188,60L196,60L196,68L188,68ZM204,60L212,60L212,68L204,68ZM220,60L228,60L228,68L220,68ZM236,60L244,60L244,68L236,68ZM252,60L308,60L308,68L252,68ZM92,68L116,68L116,76L92,76ZM132,68L148,68L148,76L132,76ZM164,68L172,68L172,76L164,76ZM196,68L220,68L220,76L196,76ZM236,68L244,68L244,76L236,76ZM36,76L44,76L44,84L36,84ZM60,76L68,76L68,84L60,84ZM84,76L108,76L108,84L84,84ZM116,76L140,76L140,84L116,84ZM148,76L156,76L156,84L148,84ZM180,76L188,76L188,84L180,84ZM196,76L204,76L204,84L196,84ZM220,76L228,76L228,84L220,84ZM260,76L284,76L284,84L260,84ZM292,76L308,76L308,84L292,84ZM12,84L20,84L20,92L12,92ZM28,84L36,84L36,92L28,92ZM44,84L60,84L60,92L44,92ZM76,84L84,84L84,92L76,92ZM100,84L140,84L140,92L100,92ZM148,84L156,84L156,92L148,92ZM188,84L196,84L196,92L188,92ZM204,84L220,84L220,92L204,92ZM228,84L236,84L236,92L228,92ZM244,84L252,84L252,92L244,92ZM268,84L276,84L276,92L268,92ZM292,84L300,84L300,92L292,92ZM44,92L52,92L52,100L44,100ZM60,92L68,92L68,100L60,100ZM76,92L84,92L84,100L76,100ZM92,92L108,92L108,100L92,100ZM116,92L124,92L124,100L116,100ZM156,92L172,92L172,100L156,100ZM188,92L196,92L196,100L188,100ZM204,92L212,92L212,100L204,100ZM220,92L228,92L228,100L220,100ZM236,92L268,92L268,100L236,100ZM284,92L292,92L292,100L284,100ZM300,92L308,92L308,100L300,100ZM28,100L36,100L36,108L28,108ZM52,100L60,100L60,108L52,108ZM76,100L92,100L92,108L76,108ZM100,100L108,100L108,108L100,108ZM124,100L140,100L140,108L124,108ZM148,100L172,100L172,108L148,108ZM188,100L212,100L212,108L188,108ZM220,100L236,100L236,108L220,108ZM244,100L260,100L260,108L244,108ZM292,100L308,100L308,108L292,108ZM20,108L28,108L28,116L20,116ZM60,108L68,108L68,116L60,116ZM84,108L100,108L100,116L84,116ZM108,108L132,108L132,116L108,116ZM148,108L156,108L156,116L148,116ZM164,108L172,108L172,116L164,116ZM180,108L196,108L196,116L180,116ZM204,108L220,108L220,116L204,116ZM244,108L292,108L292,116L244,116ZM300,108L308,108L308,116L300,116ZM20,116L44,116L44,124L20,124ZM76,116L84,116L84,124L76,124ZM116,116L140,116L140,124L116,124ZM148,116L180,116L180,124L148,124ZM188,116L204,116L204,124L188,124ZM220,116L228,116L228,124L220,124ZM236,116L252,116L252,124L236,124ZM268,116L292,116L292,124L268,124ZM300,116L308,116L308,124L300,124ZM12,124L52,124L52,132L12,132ZM60,124L68,124L68,132L60,132ZM84,124L92,124L92,132L84,132ZM100,124L108,124L108,132L100,132ZM116,124L124,124L124,132L116,132ZM132,124L140,124L140,132L132,132ZM148,124L164,124L164,132L148,132ZM172,124L196,124L196,132L172,132ZM204,124L220,124L220,132L204,132ZM252,124L260,124L260,132L252,132ZM268,124L276,124L276,132L268,132ZM292,124L308,124L308,132L292,132ZM12,132L28,132L28,140L12,140ZM36,132L44,132L44,140L36,140ZM52,132L60,132L60,140L52,140ZM68,132L100,132L100,140L68,140ZM116,132L124,132L124,140L116,140ZM132,132L148,132L148,140L132,140ZM156,132L188,132L188,140L156,140ZM220,132L228,132L228,140L220,140ZM236,132L260,132L260,140L236,140ZM276,132L284,132L284,140L276,140ZM292,132L308,132L308,140L292,140ZM36,140L44,140L44,148L36,148ZM52,140L68,140L68,148L52,148ZM84,140L100,140L100,148L84,148ZM156,140L172,140L172,148L156,148ZM180,140L188,140L188,148L180,148ZM204,140L228,140L228,148L204,148ZM244,140L252,140L252,148L244,148ZM260,140L276,140L276,148L260,148ZM284,140L308,140L308,148L284,148ZM20,148L36,148L36,156L20,156ZM44,148L52,148L52,156L44,156ZM84,148L100,148L100,156L84,156ZM108,148L116,148L116,156L108,156ZM124,148L140,148L140,156L124,156ZM156,148L180,148L180,156L156,156ZM188,148L268,148L268,156L188,156ZM28,156L68,156L68,164L28,164ZM84,156L116,156L116,164L84,164ZM124,156L148,156L148,164L124,164ZM172,156L180,156L180,164L172,164ZM188,156L196,156L196,164L188,164ZM204,156L228,156L228,164L204,164ZM244,156L260,156L260,164L244,164ZM292,156L308,156L308,164L292,164ZM12,164L36,164L36,172L12,172ZM68,164L76,164L76,172L68,172ZM84,164L92,164L92,172L84,172ZM116,164L140,164L140,172L116,172ZM148,164L164,164L164,172L148,172ZM172,164L188,164L188,172L172,172ZM196,164L212,164L212,172L196,172ZM220,164L228,164L228,172L220,172ZM244,164L268,164L268,172L244,172ZM276,164L308,164L308,172L276,172ZM28,172L52,172L52,180L28,180ZM60,172L68,172L68,180L60,180ZM76,172L100,172L100,180L76,180ZM108,172L124,172L124,180L108,180ZM132,172L188,172L188,180L132,180ZM204,172L212,172L212,180L204,180ZM236,172L244,172L244,180L236,180ZM276,172L300,172L300,180L276,180ZM20,180L28,180L28,188L20,188ZM36,180L44,180L44,188L36,188ZM52,180L60,180L60,188L52,188ZM84,180L100,180L100,188L84,188ZM108,180L116,180L116,188L108,188ZM124,180L132,180L132,188L124,188ZM148,180L164,180L164,188L148,188ZM180,180L188,180L188,188L180,188ZM196,180L204,180L204,188L196,188ZM212,180L228,180L228,188L212,188ZM244,180L260,180L260,188L244,188ZM276,180L284,180L284,188L276,188ZM28,188L44,188L44,196L28,196ZM52,188L68,188L68,196L52,196ZM76,188L108,188L108,196L76,196ZM124,188L156,188L156,196L124,196ZM164,188L188,188L188,196L164,196ZM212,188L244,188L244,196L212,196ZM252,188L260,188L260,196L252,196ZM284,188L292,188L292,196L284,196ZM12,196L20,196L20,204L12,204ZM28,196L60,196L60,204L28,204ZM84,196L108,196L108,204L84,204ZM116,196L124,196L124,204L116,204ZM148,196L156,196L156,204L148,204ZM172,196L180,196L180,204L172,204ZM188,196L220,196L220,204L188,204ZM244,196L252,196L252,204L244,204ZM268,196L276,196L276,204L268,204ZM284,196L292,196L292,204L284,204ZM300,196L308,196L308,204L300,204ZM28,204L36,204L36,212L28,212ZM52,204L84,204L84,212L52,212ZM92,204L100,204L100,212L92,212ZM108,204L156,204L156,212L108,212ZM164,204L172,204L172,212L164,212ZM188,204L204,204L204,212L188,212ZM220,204L228,204L228,212L220,212ZM236,204L244,204L244,212L236,212ZM252,204L260,204L260,212L252,212ZM268,204L284,204L284,212L268,212ZM292,204L308,204L308,212L292,212ZM28,212L36,212L36,220L28,220ZM44,212L60,212L60,220L44,220ZM68,212L76,212L76,220L68,220ZM84,212L92,212L92,220L84,220ZM108,212L116,212L116,220L108,220ZM132,212L140,212L140,220L132,220ZM148,212L180,212L180,220L148,220ZM196,212L204,212L204,220L196,220ZM220,212L236,212L236,220L220,220ZM284,212L300,212L300,220L284,220ZM12,220L20,220L20,228L12,228ZM28,220L44,220L44,228L28,228ZM60,220L108,220L108,228L60,228ZM132,220L140,220L140,228L132,228ZM164,220L204,220L204,228L164,228ZM212,220L244,220L244,228L212,228ZM252,220L260,220L260,228L252,228ZM276,220L284,220L284,228L276,228ZM292,220L308,220L308,228L292,228ZM20,228L28,228L28,236L20,236ZM44,228L60,228L60,236L44,236ZM84,228L92,228L92,236L84,236ZM100,228L108,228L108,236L100,236ZM124,228L140,228L140,236L124,236ZM148,228L156,228L156,236L148,236ZM188,228L204,228L204,236L188,236ZM236,228L244,228L244,236L236,236ZM252,228L268,228L268,236L252,236ZM300,228L308,228L308,236L300,236ZM12,236L28,236L28,244L12,244ZM44,236L84,236L84,244L44,244ZM92,236L100,236L100,244L92,244ZM116,236L124,236L124,244L116,244ZM164,236L180,236L180,244L164,244ZM204,236L220,236L220,244L204,244ZM228,236L292,236L292,244L228,244ZM300,236L308,236L308,244L300,244ZM76,244L92,244L92,252L76,252ZM100,244L116,244L116,252L100,252ZM132,244L156,244L156,252L132,252ZM180,244L188,244L188,252L180,252ZM196,244L228,244L228,252L196,252ZM236,244L244,244L244,252L236,252ZM268,244L276,244L276,252L268,252ZM292,244L308,244L308,252L292,252ZM12,252L68,252L68,260L12,260ZM84,252L92,252L92,260L84,260ZM100,252L140,252L140,260L100,260ZM148,252L164,252L164,260L148,260ZM188,252L196,252L196,260L188,260ZM212,252L228,252L228,260L212,260ZM236,252L244,252L244,260L236,260ZM252,252L260,252L260,260L252,260ZM268,252L276,252L276,260L268,260ZM292,252L300,252L300,260L292,260ZM12,260L20,260L20,268L12,268ZM60,260L68,260L68,268L60,268ZM84,260L132,260L132,268L84,268ZM180,260L196,260L196,268L180,268ZM204,260L212,260L212,268L204,268ZM220,260L228,260L228,268L220,268ZM236,260L244,260L244,268L236,268ZM268,260L284,260L284,268L268,268ZM292,260L308,260L308,268L292,268ZM12,268L20,268L20,276L12,276ZM28,268L52,268L52,276L28,276ZM60,268L68,268L68,276L60,276ZM84,268L92,268L92,276L84,276ZM116,268L148,268L148,276L116,276ZM164,268L172,268L172,276L164,276ZM196,268L212,268L212,276L196,276ZM236,268L276,268L276,276L236,276ZM284,268L292,268L292,276L284,276ZM300,268L308,268L308,276L300,276ZM12,276L20,276L20,284L12,284ZM28,276L52,276L52,284L28,284ZM60,276L68,276L68,284L60,284ZM76,276L92,276L92,284L76,284ZM116,276L124,276L124,284L116,284ZM148,276L164,276L164,284L148,284ZM196,276L220,276L220,284L196,284ZM228,276L252,276L252,284L228,284ZM268,276L276,276L276,284L268,284ZM12,284L20,284L20,292L12,292ZM28,284L52,284L52,292L28,292ZM60,284L68,284L68,292L60,292ZM132,284L140,284L140,292L132,292ZM148,284L156,284L156,292L148,292ZM164,284L172,284L172,292L164,292ZM188,284L212,284L212,292L188,292ZM220,284L236,284L236,292L220,292ZM252,284L260,284L260,292L252,292ZM268,284L276,284L276,292L268,292ZM284,284L292,284L292,292L284,292ZM300,284L308,284L308,292L300,292ZM12,292L20,292L20,300L12,300ZM60,292L68,292L68,300L60,300ZM84,292L92,292L92,300L84,300ZM100,292L108,292L108,300L100,300ZM132,292L172,292L172,300L132,300ZM188,292L212,292L212,300L188,300ZM220,292L228,292L228,300L220,300ZM236,292L252,292L252,300L236,300ZM284,292L308,292L308,300L284,300ZM12,300L68,300L68,308L12,308ZM92,300L100,300L100,308L92,308ZM108,300L116,300L116,308L108,308ZM124,300L132,300L132,308L124,308ZM140,300L148,300L148,308L140,308ZM156,300L164,300L164,308L156,308ZM172,300L180,300L180,308L172,308ZM188,300L204,300L204,308L188,308ZM212,300L220,300L220,308L212,308ZM236,300L252,300L252,308L236,308ZM260,300L276,300L276,308L260,308ZM284,300L308,300L308,308L284,308Z"/></svg>
